# xmcd
#
# Track frame offsets:
#	150
#	12463
#	23743
#	34778
#	47404
#	61052
#	70859
#	81081
#	96204
#	106123
#
# Disc length: 1560 seconds
#
# Revision: 1
# Processed by: cddbd v1.5.2PL0 Copyright (c) Steve Scherf et al.
# Submitted via: audiograbber 1.83.01
#
DISCID=7006160a
DTITLE=Porter Wagoner - County Music Ambassador
DYEAR=2005
DGENRE=County
TTITLE0=A Satisfied Mind
TTITLE1=Misery Loves Company
TTITLE2=Eat, Drink and Be Merry (For Tomorrow You'll Cry)
TTITLE3=The Carroll County Accident
TTITLE4=Skid Row Joe
TTITLE5=Sorrow On the Rocks
TTITLE6=Green, Green Grass of Home
TTITLE7=The Cold Hard Facts of Life
TTITLE8=Big Wind
TTITLE9=What Would You Do (If Jesus Came to Your House)
EXTD=
EXTT0=
EXTT1=
EXTT2=
EXTT3=
EXTT4=
EXTT5=
EXTT6=
EXTT7=
EXTT8=
EXTT9=
PLAYORDER=
